<?xml version="1.0" encoding="utf-8"?>
<!DOCTYPE svg PUBLIC "-//W3C//DTD SVG 1.1//EN" "http://www.w3.org/Graphics/SVG/1.1/DTD/svg11.dtd">
<svg version="1.1" xmlns="http://www.w3.org/2000/svg" xmlns:xlink="http://www.w3.org/1999/xlink" x="0px" y="0px" width="150px"
	 height="150px" viewBox="0 0 150 150" enable-background="new 0 0 150 150" xml:space="preserve">
<g id="Layer_1">
	<path fill="#F7941E" d="M76.84,68.775v21.84c-0.53-0.15-1.09-0.23-1.67-0.23c-0.91,0-1.78,0.19-2.56,0.54v-22.15H76.84z"/>
	<path fill="#EF4136" d="M94.06,62.185l-17.22,9.95l-2.18,1.26l-0.2-0.35l-1.85-3.19l-0.07-0.12l0.07-0.04l1.59-0.92l0.66-0.38
		l17.01-9.82C92.16,60.015,92.96,61.285,94.06,62.185z"/>
	<path fill="#F15A29" d="M76.57,69.385l-2.11,3.66l-1.85-1.07l-16.3-9.41c1.03-0.98,1.72-2.3,1.91-3.78l16.64,9.61l0.65,0.38
		L76.57,69.385z"/>
	<path fill="#F15A29" d="M51.87,55.115l-2.12,3.66l6.56,3.79c-1.13,1.09-2.68,1.76-4.38,1.76c-3.5,0-6.34-2.84-6.34-6.34
		c0-3.51,2.84-6.34,6.34-6.34s6.34,2.83,6.34,6.34c0,0.27-0.02,0.54-0.05,0.8L51.87,55.115z"/>
	<path fill="#EF4136" d="M104.41,57.275c0,3.5-2.84,6.34-6.34,6.34c-1.52,0-2.92-0.54-4.01-1.43l5.3-3.06l-2.11-3.66l-5.38,3.11
		c-0.09-0.42-0.14-0.86-0.14-1.3c0-3.5,2.84-6.34,6.34-6.34S104.41,53.775,104.41,57.275z"/>
	<path fill="#F7941E" d="M81.51,96.725c0,3.5-2.84,6.34-6.34,6.34s-6.34-2.84-6.34-6.34c0-2.59,1.55-4.82,3.78-5.8v6.38h4.23v-6.69
		C79.53,91.335,81.51,93.805,81.51,96.725z"/>
	<circle fill="#FFFFFF" cx="75" cy="70" r="5.764"/>
	<animateTransform attributeName="transform"
                    attributeType="XML"
                    type="rotate"
                    from="0 75 70"
                    to="360 75 70"
                    dur="1s"
                    repeatCount="indefinite"/>
</g>

</svg>
