<?xml version="1.0" encoding="utf-8"?>
<!DOCTYPE svg PUBLIC "-//W3C//DTD SVG 1.1//EN" "http://www.w3.org/Graphics/SVG/1.1/DTD/svg11.dtd">
<svg version="1.1" id="Layer_1" xmlns="http://www.w3.org/2000/svg" xmlns:xlink="http://www.w3.org/1999/xlink" x="0px" y="0px"
	 width="150px" height="150px" viewBox="0 0 150 150" enable-background="new 0 0 150 150" xml:space="preserve">

<g>
<path fill="#1B75BB" d="M102,89.43c0.3,0,0.6-0.01,0.9-0.03c-2.99,5.78-7.72,10.51-13.5,13.5c0.02-0.3,0.03-0.6,0.03-0.9
	c0-7.97-6.46-14.43-14.43-14.43S60.57,94.03,60.57,102c0,0.3,0.01,0.6,0.03,0.9c-5.78-2.99-10.51-7.72-13.5-13.5
	c0.3,0.02,0.6,0.03,0.9,0.03c7.97,0,14.43-6.46,14.43-14.43c0-7.97-6.46-14.43-14.43-14.43c-0.3,0-0.6,0.01-0.9,0.03
	c2.99-5.78,7.72-10.51,13.5-13.5c-0.02,0.3-0.03,0.6-0.03,0.9c0,7.97,6.46,14.43,14.43,14.43S89.43,55.97,89.43,48
	c0-0.3-0.01-0.6-0.03-0.9c5.78,2.99,10.51,7.72,13.5,13.5c-0.3-0.02-0.6-0.03-0.9-0.03c-7.97,0-14.43,6.46-14.43,14.43
	C87.57,82.97,94.03,89.43,102,89.43z"/>

<path fill="#1B75BB" stroke="#FFFFFF" stroke-miterlimit="10" d="M89.4,47.1c-0.46-7.55-6.73-13.53-14.4-13.53
	S61.06,39.55,60.6,47.1c-0.02,0.3-0.03,0.6-0.03,0.9c0,7.97,6.46,14.43,14.43,14.43S89.43,55.97,89.43,48
	C89.43,47.7,89.42,47.4,89.4,47.1z">
		<animateTransform attributeName="transform"
                          attributeType="XML"
                          type="translate"
                          dur="1s"
                          values="0,-20;0,0;0,-20;"
                          repeatCount="indefinite"/>
</path>

<path fill="#1B75BB" stroke="#FFFFFF" stroke-miterlimit="10" d="M48,60.57c-0.3,0-0.6,0.01-0.9,0.03
	c-7.55,0.46-13.53,6.73-13.53,14.4c0,7.67,5.98,13.94,13.53,14.4c0.3,0.02,0.6,0.03,0.9,0.03c7.97,0,14.43-6.46,14.43-14.43
	C62.43,67.03,55.97,60.57,48,60.57z">
		<animateTransform attributeName="transform"
                          attributeType="XML"
                          type="translate"
                          dur="1s"
                          values="-20,0;0,0;-20,0;"
                          repeatCount="indefinite"/>
</path>

<path fill="#1B75BB" stroke="#FFFFFF" stroke-miterlimit="10" d="M75,87.57c-7.97,0-14.43,6.46-14.43,14.43c0,0.3,0.01,0.6,0.03,0.9
	c0.46,7.55,6.73,13.53,14.4,13.53s13.94-5.98,14.4-13.53c0.02-0.3,0.03-0.6,0.03-0.9C89.43,94.03,82.97,87.57,75,87.57z">
		<animateTransform attributeName="transform"
                          attributeType="XML"
                          type="translate"
                          dur="1s"
                          values="0,20;0,0;0,20;"
                          repeatCount="indefinite"/>
</path>

<path fill="#1B75BB" stroke="#FFFFFF" stroke-miterlimit="10" d="M102.9,60.6c-0.3-0.02-0.6-0.03-0.9-0.03
	c-7.97,0-14.43,6.46-14.43,14.43c0,7.97,6.46,14.43,14.43,14.43c0.3,0,0.6-0.01,0.9-0.03c7.55-0.46,13.53-6.73,13.53-14.4
	C116.43,67.33,110.45,61.06,102.9,60.6z">
		<animateTransform attributeName="transform"
                          attributeType="XML"
                          type="translate"
                          dur="1s"
                          values="20,0;0,0;20,0;"
                          repeatCount="indefinite"/>
</path>

<animateTransform attributeName="transform"
                    attributeType="XML"
                    type="rotate"
                    from="0 75 75"
                    to="360 75 75"
                    dur="1s"
                    repeatCount="indefinite"/>

</g>
</svg>
